<?xml version="1.0"?>
<svg viewBox="0 0 512 512" width="55" height="55"><title>Apps</title><path d="M90,81a34.038,34.038,0,0,1,34-34H94A34.038,34.038,0,0,0,60,81V95H90Z" style="fill:#d4e1f4"/><rect x="60" y="107" width="30" height="286" style="fill:#d4e1f4"/><path d="M90,431V405H60v26a34.038,34.038,0,0,0,34,34h30A34.038,34.038,0,0,1,90,431Z" style="fill:#d4e1f4"/><path d="M245.819,107h11.116a6,6,0,0,0,0-12H245.819a6,6,0,1,0,0,12Z" style="fill:#0635c9"/><path d="M177.125,456a21,21,0,1,0-21-21A21.023,21.023,0,0,0,177.125,456Zm0-30a9,9,0,1,1-9,9A9.011,9.011,0,0,1,177.125,426Z" style="fill:#0635c9"/><path d="M417.1,47H285V59H417.1A31.873,31.873,0,0,1,449,90.722V104H435.986a6,6,0,0,0,0,12H449V385H298v12H449v24.278A31.873,31.873,0,0,1,417.1,453H285v12H417.1A43.887,43.887,0,0,0,461,421.278V90.722A43.887,43.887,0,0,0,417.1,47Z" style="fill:#1ae5be"/><path d="M416.918,116a6,6,0,0,0,0-12h-10.5a6,6,0,0,0,0,12Z" style="fill:#1ae5be"/><path d="M387.819,116a6,6,0,0,0,0-12H297.194a6,6,0,0,0,0,12Z" style="fill:#1ae5be"/><path d="M361.708,425.056a20.167,20.167,0,1,0-20.166,20.166A20.189,20.189,0,0,0,361.708,425.056Zm-28.333,0a8.167,8.167,0,1,1,8.167,8.166A8.176,8.176,0,0,1,333.375,425.056Z" style="fill:#1ae5be"/><path d="M303,81a46,46,0,0,0-46-46H97A46,46,0,0,0,51,81V431a46,46,0,0,0,46,46H257a46,46,0,0,0,46-46ZM97.125,47h160A33.931,33.931,0,0,1,291,81V95H277.125a6,6,0,0,0,0,12H291V393H63V107H226.125a6,6,0,0,0,0-12H63V81A34.145,34.145,0,0,1,97.125,47ZM63,405H291v26a33.931,33.931,0,0,1-33.875,34h-160A34.145,34.145,0,0,1,63,431Z" style="fill:#0635c9"/></svg>
