<svg height="42pt" viewBox="-17 -49 565.33331 565" width="42pt"><title>Digital Marketing
</title><path d="m521.25 415.679688h-412.5c-32.429688-.027344-58.714844-26.3125-58.75-58.75v-350.097657c.003906-2.734375.199219-5.460937.582031-8.167969-28.988281 4.101563-50.5468748 28.898438-50.582031 58.167969v350.097657c.0351562 32.4375 26.320312 58.722656 58.75 58.75h412.5c29.273438-.03125 54.066406-21.589844 58.167969-50.574219-2.703125.378906-5.433594.574219-8.167969.574219zm0 0" fill="#d4e1f4"/><path d="m530 56.832031v350.097657c-.035156 32.4375-26.320312 58.722656-58.75 58.75h-412.5c-32.429688-.027344-58.7148438-26.3125-58.75-58.75v-350.097657c.0351562-32.429687 26.320312-58.714843 58.75-58.75h412.5c32.429688.035157 58.714844 26.320313 58.75 58.75zm-17.5 350.097657v-268.734376h-495v268.734376c.023438 22.773437 18.476562 41.230468 41.25 41.25h412.5c22.773438-.019532 41.226562-18.476563 41.25-41.25zm0-286.234376v-63.863281c-.023438-22.773437-18.476562-41.222656-41.25-41.25h-412.5c-22.773438.027344-41.226562 18.476563-41.25 41.25v63.863281zm0 0" fill="#0635c9"/><g fill="#1ae5be"><path d="m390 236.410156h-50c-4.835938 0-8.75 3.914063-8.75 8.75v163.75c0 4.832032 3.914062 8.75 8.75 8.75h50c4.835938 0 8.75-3.917968 8.75-8.75v-163.75c0-4.835937-3.914062-8.75-8.75-8.75zm-8.75 163.75h-32.5v-146.25h32.5zm0 0"/><path d="m390.265625 178.804688c0-4.828126-3.921875-8.75-8.75-8.75h-233.03125c-4.828125 0-8.75 3.921874-8.75 8.75 0 4.835937 3.921875 8.75 8.75 8.75h233.03125c4.828125 0 8.75-3.914063 8.75-8.75zm0 0"/><path d="m290 311.410156h-50c-4.835938 0-8.75 3.914063-8.75 8.75v88.75c0 4.832032 3.914062 8.75 8.75 8.75h50c4.835938 0 8.75-3.917968 8.75-8.75v-88.75c0-4.835937-3.914062-8.75-8.75-8.75zm-8.75 88.75h-32.5v-71.25h32.5zm0 0"/><path d="m256.6875 236.410156c-4.832031 0-8.75 3.914063-8.75 8.75 0 4.832032 3.917969 8.75 8.75 8.75h28.0625c4.828125 0 8.75-3.917968 8.75-8.75 0-4.835937-3.921875-8.75-8.75-8.75zm0 0"/><path d="m206.890625 68.804688c-.03125 7.351562 2.867187 14.40625 8.046875 19.617187 5.179688 5.207031 12.214844 8.144531 19.5625 8.164063h.089844c15.289062.019531 27.699218-12.359376 27.722656-27.652344.023438-15.292969-12.355469-27.707032-27.648438-27.726563h-.074218c-15.253906.015625-27.632813 12.351563-27.699219 27.597657zm27.699219-10.097657h.023437c5.625.007813 10.183594 4.578125 10.171875 10.203125-.003906 5.625-4.570312 10.179688-10.195312 10.175782h-.039063c-5.625-.011719-10.179687-4.582032-10.171875-10.207032.011719-5.628906 4.582032-10.179687 10.210938-10.171875zm0 0"/><path d="m221.125 236.410156h-72.640625c-4.828125 0-8.75 3.914063-8.75 8.75 0 4.832032 3.921875 8.75 8.75 8.75h72.640625c4.832031 0 8.75-3.917968 8.75-8.75 0-4.835937-3.917969-8.75-8.75-8.75zm0 0"/><path d="m196.125 302.746094h-47.640625c-4.828125 0-8.75 3.917968-8.75 8.75 0 4.835937 3.921875 8.75 8.75 8.75h47.640625c4.832031 0 8.75-3.914063 8.75-8.75 0-4.832032-3.917969-8.75-8.75-8.75zm0 0"/><path d="m190 361.410156h-50c-4.835938 0-8.75 3.914063-8.75 8.75v38.75c0 4.832032 3.914062 8.75 8.75 8.75h50c4.835938 0 8.75-3.917968 8.75-8.75v-38.75c0-4.835937-3.914062-8.75-8.75-8.75zm-8.75 38.75h-32.5v-21.25h32.5zm0 0"/><path d="m149.5 96.320312c15.261719-.023437 27.613281-12.40625 27.601562-27.664062-.011718-15.261719-12.382812-27.625-27.644531-27.625-15.257812 0-27.628906 12.363281-27.644531 27.625-.011719 15.257812 12.34375 27.640625 27.601562 27.664062zm-10.1875-27.722656c.027344-5.613281 4.578125-10.144531 10.1875-10.152344h.035156c5.628906.007813 10.183594 4.578126 10.171875 10.203126-.011719 5.632812-4.582031 10.183593-10.207031 10.171874h-.027344c-5.625-.019531-10.175781-4.59375-10.160156-10.222656zm0 0"/><path d="m64.511719 40.671875c-15.292969-.050781-27.734375 12.308594-27.777344 27.605469-.050781 15.292968 12.308594 27.730468 27.601563 27.78125h.085937c15.300781.023437 27.71875-12.355469 27.742187-27.648438.023438-15.296875-12.355468-27.714844-27.652343-27.738281zm7.097656 34.925781c-1.902344 1.90625-4.492187 2.96875-7.1875 2.960938h-.03125c-5.632813-.011719-10.1875-4.582032-10.175781-10.210938.007812-5.628906 4.578125-10.1875 10.207031-10.175781h.027344c4.125.015625 7.832031 2.507813 9.398437 6.324219 1.566406 3.808594.683594 8.191406-2.238281 11.101562zm0 0"/></g></svg>