<svg height="42pt" viewBox="-17 -48 552 552" width="42pt"><title>Website</title><path d="m496.25 399.625h-400c-22.773438-.023438-41.226562-18.476562-41.25-41.25v-339.125c0-1.210938.0625-2.402344.164062-3.585938-21.296874 1.882813-37.640624 19.703126-37.664062 41.085938v339.125c.023438 22.773438 18.476562 41.226562 41.25 41.25h400c21.382812-.023438 39.203125-16.367188 41.085938-37.664062-1.183594.101562-2.375.164062-3.585938.164062zm0 0" fill="#d4e1f4"/><path d="m517.5 56.75v339.125c-.035156 32.433594-26.320312 58.71875-58.75 58.75h-400c-32.429688-.03125-58.7148438-26.316406-58.75-58.75v-339.125c.0351562-32.429688 26.320312-58.714844 58.75-58.75h400c32.429688.035156 58.714844 26.320312 58.75 58.75zm-17.5 339.125v-280.710938h-482.5v280.710938c.023438 22.773438 18.476562 41.226562 41.25 41.25h400c22.773438-.023438 41.226562-18.476562 41.25-41.25zm0-298.210938v-40.914062c-.023438-22.773438-18.476562-41.226562-41.25-41.25h-400c-22.773438.023438-41.226562 18.476562-41.25 41.25v40.914062zm0 0" fill="#0635c9"/><g fill="#1ae5be"><path d="m301.023438 194.515625h137.5c4.835937 0 8.75-3.921875 8.75-8.75 0-4.835937-3.914063-8.75-8.75-8.75h-137.5c-4.832032 0-8.75 3.914063-8.75 8.75 0 4.828125 3.917968 8.75 8.75 8.75zm0 0"/><path d="m301.023438 257.773438h137.5c4.835937 0 8.75-3.914063 8.75-8.75 0-4.832032-3.914063-8.75-8.75-8.75h-137.5c-4.832032 0-8.75 3.917968-8.75 8.75 0 4.835937 3.917968 8.75 8.75 8.75zm0 0"/><path d="m301.023438 321.039062h137.5c4.835937 0 8.75-3.917968 8.75-8.75 0-4.835937-3.914063-8.75-8.75-8.75h-137.5c-4.832032 0-8.75 3.914063-8.75 8.75 0 4.832032 3.917968 8.75 8.75 8.75zm0 0"/><path d="m301.023438 384.296875h137.5c4.835937 0 8.75-3.914063 8.75-8.75 0-4.828125-3.914063-8.75-8.75-8.75h-137.5c-4.832032 0-8.75 3.921875-8.75 8.75 0 4.835937 3.917968 8.75 8.75 8.75zm0 0"/><path d="m67.5 185.765625v189.78125c0 4.835937 3.914062 8.75 8.75 8.75h158.75c4.835938 0 8.75-3.914063 8.75-8.75v-189.78125c0-4.835937-3.914062-8.75-8.75-8.75h-158.75c-4.835938 0-8.75 3.914063-8.75 8.75zm17.5 8.75h141.25v172.28125h-141.25zm0 0"/><path d="m189.1875 83.976562c15.035156 0 27.222656-12.191406 27.222656-27.226562s-12.1875-27.226562-27.222656-27.226562c-15.039062 0-27.226562 12.191406-27.226562 27.226562.015624 15.03125 12.195312 27.210938 27.226562 27.226562zm0-36.953124c5.375 0 9.722656 4.355468 9.722656 9.726562s-4.347656 9.726562-9.722656 9.726562c-5.367188 0-9.726562-4.355468-9.726562-9.726562.007812-5.367188 4.359374-9.71875 9.726562-9.726562zm0 0"/><path d="m126.136719 83.976562c15.035156 0 27.226562-12.191406 27.226562-27.226562s-12.191406-27.226562-27.226562-27.226562c-15.035157 0-27.226563 12.191406-27.226563 27.226562.027344 15.023438 12.203125 27.203125 27.226563 27.226562zm0-36.953124c5.371093 0 9.726562 4.355468 9.726562 9.726562s-4.355469 9.726562-9.726562 9.726562c-5.371094 0-9.726563-4.355468-9.726563-9.726562.015625-5.367188 4.363282-9.710938 9.726563-9.726562zm0 0"/><path d="m63.101562 83.976562c15.03125 0 27.226563-12.191406 27.226563-27.226562s-12.195313-27.226562-27.226563-27.226562c-15.035156 0-27.226562 12.191406-27.226562 27.226562.015625 15.03125 12.195312 27.210938 27.226562 27.226562zm0-36.953124c5.371094 0 9.726563 4.355468 9.726563 9.726562s-4.355469 9.726562-9.726563 9.726562c-5.371093 0-9.726562-4.355468-9.726562-9.726562.003906-5.367188 4.355469-9.71875 9.726562-9.726562zm0 0"/></g></svg>